<?xml version="1.0" encoding="UTF-8"?> <svg xmlns="http://www.w3.org/2000/svg" width="16.922" height="16.999" viewBox="0 0 16.922 16.999"><g id="Group_5265" data-name="Group 5265" transform="translate(-1352.657 -410.014)"><path id="Path_43844" data-name="Path 43844" d="M132.284.015c.23.138.476.276.706.414,1.166.675,2.347,1.365,3.513,2.056,1.4.813,2.777,1.611,4.173,2.424a.093.093,0,0,1,.046.092v1.5H139.4v5.861H125.181V6.49H123.8V4.925c.015-.015.031-.015.061-.031,1.043-.614,2.087-1.212,3.13-1.826,1.611-.936,3.237-1.887,4.848-2.823.138-.077.276-.169.414-.245Zm5.523,10.832V5.017a.071.071,0,0,0-.046-.077c-.153-.092-.307-.169-.46-.261L135.92,3.9c-.568-.322-1.12-.644-1.688-.951-.644-.368-1.289-.736-1.918-1.1a.07.07,0,0,0-.077,0c-.353.2-.69.4-1.043.6l-2.992,1.7c-.46.261-.921.522-1.4.782a.084.084,0,0,0-.046.077v5.815c3.682.015,7.364.015,11.046.031" transform="translate(1228.857 410.014)" fill="#fafafa"></path><path id="Path_43845" data-name="Path 43845" d="M159.06,100.429c-.031-.015-.061-.015-.092-.031a.457.457,0,0,1-.338-.414,3.34,3.34,0,0,1-.015-.782.963.963,0,0,1,.046-.291.444.444,0,0,1,.353-.338.875.875,0,0,1,.4,0,.477.477,0,0,1,.353.4,3.478,3.478,0,0,1,.031.8,1.691,1.691,0,0,1-.031.276.457.457,0,0,1-.368.368c-.015,0-.046.015-.061.015Zm.368-.936h0a1.012,1.012,0,0,1-.015-.215l-.046-.322a.166.166,0,0,0-.169-.123.179.179,0,0,0-.184.123.361.361,0,0,0-.031.123c-.015.2-.015.4-.015.583a1.394,1.394,0,0,0,.046.353.187.187,0,0,0,.123.138.2.2,0,0,0,.261-.169c.015-.153.015-.322.031-.491" transform="translate(1199.396 326.584)" fill="#fafafa"></path><path id="Path_43846" data-name="Path 43846" d="M129.154,100.472a.865.865,0,0,1-.184-.061.457.457,0,0,1-.261-.4,3.189,3.189,0,0,1,0-.936.489.489,0,0,1,.522-.476.717.717,0,0,1,.261.031.457.457,0,0,1,.353.414c.015.23.031.46.031.69a1.513,1.513,0,0,1-.046.368.444.444,0,0,1-.353.338c-.015,0-.031.015-.061.015Zm-.123-.921h0a.522.522,0,0,1,.015.153,1.1,1.1,0,0,0,.046.384.185.185,0,0,0,.184.123.166.166,0,0,0,.169-.107.545.545,0,0,0,.031-.153c.015-.245.015-.476.015-.721a.616.616,0,0,0-.046-.23.179.179,0,0,0-.215-.107.212.212,0,0,0-.153.2c-.031.153-.031.307-.046.46" transform="translate(1224.73 326.542)" fill="#fafafa"></path><path id="Path_43847" data-name="Path 43847" d="M188.207,100.641c-.046-.015-.092-.015-.123-.031a.429.429,0,0,1-.322-.43c-.015-.46,0-.905,0-1.365h.368v1.258a.551.551,0,0,0,.031.169c.031.092.092.123.2.123a.2.2,0,0,0,.2-.138,1.184,1.184,0,0,0,.031-.23V98.8h.368v1.273a.717.717,0,0,1-.046.261.475.475,0,0,1-.384.292c-.015,0-.015.015-.031.015Z" transform="translate(1174.715 326.372)" fill="#fafafa"></path><path id="Path_43848" data-name="Path 43848" d="M198.3,98.9h.46a.069.069,0,0,1,.046.046c.123.322.23.644.353.951.031.077.061.138.092.215V98.9h.338v1.81h-.414a.071.071,0,0,1-.077-.046c-.138-.4-.292-.8-.43-1.2a.033.033,0,0,0-.031-.031v1.289H198.3Z" transform="translate(1165.787 326.288)" fill="#fafafa"></path><path id="Path_43849" data-name="Path 43849" d="M170.3,100.7h-.322a.033.033,0,0,1-.031-.031.747.747,0,0,1-.015-.184,2.6,2.6,0,0,0-.015-.338.2.2,0,0,0-.2-.2h-.153v.736H169.2V98.9h.675a.375.375,0,0,1,.4.338.693.693,0,0,1-.015.307.351.351,0,0,1-.245.261c-.015,0-.015.015-.046.015.031,0,.046.015.061.015a.3.3,0,0,1,.245.307c0,.153.015.307.015.476a.664.664,0,0,1,.015.077m-.736-1.534v.506h.153a.179.179,0,0,0,.169-.107.381.381,0,0,0,.015-.292c-.015-.046-.046-.092-.092-.092a1.24,1.24,0,0,1-.245-.015" transform="translate(1190.424 326.288)" fill="#fafafa"></path><path id="Path_43850" data-name="Path 43850" d="M215.92,86.265h-.384c-.015,0-.031-.031-.046-.046-.123-.338-.245-.66-.368-1-.015-.031-.015-.046-.031-.077v1.1H214.8V84.7h.368a.071.071,0,0,1,.077.046c.123.322.23.644.353.951,0,.015.015.031.031.046V84.7h.292Z" transform="translate(1151.818 338.309)" fill="#fafafa"></path><path id="Path_43851" data-name="Path 43851" d="M139.3,98.862c.245,0,.491-.015.721,0a.393.393,0,0,1,.353.276.817.817,0,0,1,.015.506.4.4,0,0,1-.414.292h-.291v.721h-.368v-1.8Zm.368.782a.864.864,0,0,0,.2,0,.129.129,0,0,0,.107-.061.324.324,0,0,0,.015-.368.225.225,0,0,0-.092-.077,1.24,1.24,0,0,0-.245-.015v.522Z" transform="translate(1215.736 326.325)" fill="#fafafa"></path><path id="Path_43852" data-name="Path 43852" d="M148.9,98.9h.721a.373.373,0,0,1,.353.276,1.063,1.063,0,0,1,.015.491.433.433,0,0,1-.414.307h-.307v.721h-.353V98.9Zm.368.8h.2a.14.14,0,0,0,.123-.061.316.316,0,0,0,.046-.307.163.163,0,0,0-.153-.138H149.3a.053.053,0,0,0-.031.015V99.7" transform="translate(1207.609 326.288)" fill="#fafafa"></path><path id="Path_43853" data-name="Path 43853" d="M137.039,86.017c.061-.015.153-.031.245-.046v.245h-.015c-.2,0-.4.015-.6.015a.747.747,0,0,1-.184-.015.358.358,0,0,1-.307-.322,2.966,2.966,0,0,1-.031-.736,1.185,1.185,0,0,1,.031-.23.358.358,0,0,1,.338-.292.743.743,0,0,1,.261,0,.407.407,0,0,1,.353.338,2,2,0,0,1-.015.8.657.657,0,0,1-.077.245m-.169-.583h0c-.015-.031,0-.077-.015-.107a2.554,2.554,0,0,0-.046-.338.138.138,0,0,0-.153-.107.16.16,0,0,0-.153.107c-.015.031-.015.061-.031.092,0,.215-.015.445-.015.66a.936.936,0,0,0,.046.2.134.134,0,0,0,.138.077.161.161,0,0,0,.138-.077.285.285,0,0,0,.031-.107c.031-.153.046-.276.061-.4" transform="translate(1218.41 338.373)" fill="#fafafa"></path><path id="Path_43854" data-name="Path 43854" d="M174.722,86.35H174.4V84.8h.307v.614h.368V84.8h.307v1.55h-.307v-.69h-.353Z" transform="translate(1186.021 338.224)" fill="#fafafa"></path><path id="Path_43855" data-name="Path 43855" d="M184.4,85.482c-.015.138-.015.292-.031.43a.415.415,0,0,1-.445.384.943.943,0,0,1-.215-.015.41.41,0,0,1-.338-.384,3.6,3.6,0,0,1,0-.813.4.4,0,0,1,.414-.384,1.668,1.668,0,0,1,.276.015.392.392,0,0,1,.307.353c.015.123.015.276.031.414m-.322.015h0c-.015-.061,0-.107-.015-.169a2.121,2.121,0,0,0-.046-.307.138.138,0,0,0-.153-.107.148.148,0,0,0-.153.107.285.285,0,0,0-.031.107c0,.184-.015.368-.015.568a1.511,1.511,0,0,0,.031.261.138.138,0,0,0,.153.107.148.148,0,0,0,.153-.107.138.138,0,0,0,.015-.077,1.808,1.808,0,0,0,.061-.384" transform="translate(1178.443 338.309)" fill="#fafafa"></path><path id="Path_43856" data-name="Path 43856" d="M224.952,85.5v-.245h.476v.736c0,.046-.015.061-.061.061a1.585,1.585,0,0,1-.537.031c-.215-.031-.353-.123-.384-.338a2.4,2.4,0,0,1,0-.936.4.4,0,0,1,.414-.338.522.522,0,0,1,.4.092.5.5,0,0,1,.169.384.033.033,0,0,1-.031.031h-.276c-.015-.061-.015-.107-.031-.169a.138.138,0,0,0-.153-.107.156.156,0,0,0-.153.077.806.806,0,0,0-.061.261c0,.184,0,.368.015.568v.046c.031.215.169.23.338.184.015,0,.031-.031.031-.046v-.276c0-.031-.015-.046-.046-.031-.015.015-.061.015-.107.015" transform="translate(1143.691 338.507)" fill="#fafafa"></path><path id="Path_43857" data-name="Path 43857" d="M146.006,84.9h.322v1.089a.459.459,0,0,1-.491.491.6.6,0,0,1-.368-.092.406.406,0,0,1-.169-.338V84.915h.307V86a.338.338,0,0,0,.015.123.173.173,0,0,0,.2.138.192.192,0,0,0,.169-.153.3.3,0,0,0,.015-.123V84.9" transform="translate(1210.656 338.14)" fill="#fafafa"></path><path id="Path_43858" data-name="Path 43858" d="M192.415,84.7h.322v1.074a.77.77,0,0,0,.031.184.166.166,0,0,0,.169.107.138.138,0,0,0,.153-.107.381.381,0,0,0,.015-.123v-1.1h.322v1.1a.432.432,0,0,1-.46.476,1.013,1.013,0,0,1-.215-.015.429.429,0,0,1-.353-.414v-.107Z" transform="translate(1170.783 338.309)" fill="#fafafa"></path><path id="Path_43859" data-name="Path 43859" d="M153.7,86.265c.061-.215.123-.43.169-.644l.23-.875c.015-.031.031-.046.061-.046h.322c.031,0,.046.015.061.046.107.4.215.813.322,1.212.031.107.046.2.077.307h-.307a.033.033,0,0,1-.031-.031c-.015-.092-.046-.184-.061-.261-.015-.031-.015-.046-.061-.046h-.338c-.031,0-.046.015-.061.046-.015.092-.046.184-.061.261,0,.015-.031.031-.046.031a.833.833,0,0,1-.276,0m.767-.583c-.046-.23-.092-.445-.153-.66H154.3c-.046.215-.092.43-.138.66Z" transform="translate(1203.545 338.309)" fill="#fafafa"></path><path id="Path_43860" data-name="Path 43860" d="M223.813,100.61h-.368v-.568c0-.031-.015-.077-.015-.107-.138-.353-.276-.721-.414-1.074,0-.015-.015-.031-.015-.046h.4c.092.245.169.491.261.752a1.719,1.719,0,0,0,.077-.2l.184-.506c.015-.031.031-.061.077-.061h.322l-.138.322c-.107.276-.23.552-.338.813a.2.2,0,0,0-.015.092c-.015.2-.015.384-.015.583" transform="translate(1144.877 326.372)" fill="#fafafa"></path><path id="Path_43861" data-name="Path 43861" d="M202.536,84.835h-.307c0-.046-.015-.092-.015-.123a.126.126,0,0,0-.153-.107q-.138.023-.138.138a.157.157,0,0,0,.092.184c.092.061.184.107.276.169a.538.538,0,0,1,.261.292.605.605,0,0,1-.015.368.294.294,0,0,1-.215.184.735.735,0,0,1-.445.015.36.36,0,0,1-.276-.338v-.153h.307a.425.425,0,0,0,.015.138c.015.123.123.138.215.123a.171.171,0,0,0,.107-.215.3.3,0,0,0-.138-.169c-.107-.077-.23-.153-.338-.23a.465.465,0,0,1-.031-.66.455.455,0,0,1,.23-.107.824.824,0,0,1,.338.015.31.31,0,0,1,.23.276v.2" transform="translate(1162.994 338.619)" fill="#fafafa"></path><path id="Path_43862" data-name="Path 43862" d="M178,98.9h1.166v.291h-.384v1.5H178.4v-1.5H178Z" transform="translate(1182.973 326.288)" fill="#fafafa"></path><path id="Path_43863" data-name="Path 43863" d="M214.6,99.192h-.4V98.9h1.166v.291h-.414v1.5H214.6Z" transform="translate(1152.326 326.288)" fill="#fafafa"></path><path id="Path_43864" data-name="Path 43864" d="M129.467,85.514v.245h-.46V86.2h.522v.245h-.782c-.046,0-.046-.015-.046-.046V84.9h.813v.23h-.491v.384Z" transform="translate(1224.709 338.14)" fill="#fafafa"></path><rect id="Rectangle_1692" data-name="Rectangle 1692" width="0.353" height="1.795" transform="translate(1365.836 425.188)" fill="#fafafa"></rect><path id="Path_43865" data-name="Path 43865" d="M163.7,84.8h.307v1.289h.46v.261H163.7Z" transform="translate(1195.08 338.224)" fill="#fafafa"></path><path id="Path_43866" data-name="Path 43866" d="M210.407,86.265h-.276c-.015,0-.015-.015-.031-.031V84.7h.307Z" transform="translate(1155.799 338.309)" fill="#fafafa"></path><rect id="Rectangle_1693" data-name="Rectangle 1693" width="5.677" height="1.565" transform="translate(1358.426 415.691)" fill="#fafafa"></rect><rect id="Rectangle_1694" data-name="Rectangle 1694" width="5.677" height="1.565" transform="translate(1358.426 417.885)" fill="#fafafa"></rect></g></svg> 