<?xml version="1.0" encoding="UTF-8"?> <svg xmlns="http://www.w3.org/2000/svg" width="15.189" height="17.336" viewBox="0 0 15.189 17.336"><g id="Group_5264" data-name="Group 5264" transform="translate(-1333.664 -410.03)"><path id="Path_43842" data-name="Path 43842" d="M24.772,8.722c1.458-.015,2.915-.015,4.373-.046a.54.54,0,0,1,.583.368c.614,1.473,1.258,2.946,1.9,4.4q.092.184.184.414c.568-.2,1.12-.4,1.688-.6.169.353.322.69.491,1.028v.092c-1,.4-2.01.782-3.038,1.181-.322-.752-.629-1.458-.936-2.163-.414-.967-.828-1.933-1.227-2.9a.524.524,0,0,0-.583-.368c-1.565.015-3.145,0-4.71,0h-.537c-.046-.552-.092-1.074-.123-1.6-.123-1.81-.245-3.621-.384-5.431a7.339,7.339,0,0,0-.169-1.013C22.041,1.22,22.393.576,23.406.1h.69c.015.015.015.031.031.031a1.533,1.533,0,0,1,1.151,1.55c0,.736-.46,1.243-1.381,1.534.046,1,.107,2.01.169,3.068h3.912V7.725H24.235c.015.338.031.644.061,1h.476" transform="translate(1314.861 409.93)" fill="#fafafa"></path><path id="Path_43843" data-name="Path 43843" d="M.015,46.649c.061-.215.123-.445.169-.66a5.838,5.838,0,0,1,3.13-3.79c.046.552.107,1.059.123,1.55,0,.107-.138.23-.245.307a4.21,4.21,0,0,0-1.365,4.756,4.15,4.15,0,0,0,4.112,2.7,4.183,4.183,0,0,0,3.774-3.222c.015-.077.031-.169.077-.384.353.721.66,1.319.936,1.948.046.092-.046.276-.123.384a5.749,5.749,0,0,1-3.912,2.746,1.944,1.944,0,0,0-.276.092H5.032a.324.324,0,0,0-.153-.061A5.631,5.631,0,0,1,.138,48.6c-.046-.184-.092-.353-.138-.537Z" transform="translate(1333.664 374.289)" fill="#fafafa"></path></g></svg> 